<mxfile host="app.diagrams.net" agent="Mozilla/5.0 (Windows NT 10.0; Win64; x64) AppleWebKit/537.36 (KHTML, like Gecko) Chrome/129.0.0.0 Safari/537.36" version="24.7.14">
  <diagram id="R2lEEEUBdFMjLlhIrx00" name="Page-1">
    <mxGraphModel dx="612" dy="724" grid="1" gridSize="10" guides="1" tooltips="1" connect="1" arrows="1" fold="1" page="1" pageScale="1" pageWidth="850" pageHeight="1100" math="0" shadow="0" extFonts="Permanent Marker^https://fonts.googleapis.com/css?family=Permanent+Marker">
      <root>
        <mxCell id="0" />
        <mxCell id="1" parent="0" />
        <mxCell id="eFL0yc5VYw9Xigzq2X4M-45" value="ISA" style="triangle;whiteSpace=wrap;html=1;rotation=-90;align=center;" vertex="1" parent="1">
          <mxGeometry x="200" y="150" width="60" height="80" as="geometry" />
        </mxCell>
        <mxCell id="eFL0yc5VYw9Xigzq2X4M-46" value="" style="endArrow=none;html=1;rounded=0;exitX=1;exitY=0.5;exitDx=0;exitDy=0;entryX=0.5;entryY=1;entryDx=0;entryDy=0;" edge="1" parent="1" source="eFL0yc5VYw9Xigzq2X4M-45" target="eFL0yc5VYw9Xigzq2X4M-60">
          <mxGeometry relative="1" as="geometry">
            <mxPoint x="260" y="330" as="sourcePoint" />
            <mxPoint x="230" y="120" as="targetPoint" />
          </mxGeometry>
        </mxCell>
        <mxCell id="eFL0yc5VYw9Xigzq2X4M-48" value="" style="endArrow=none;html=1;rounded=0;exitX=0.25;exitY=0;exitDx=0;exitDy=0;" edge="1" parent="1" source="eFL0yc5VYw9Xigzq2X4M-60" target="eFL0yc5VYw9Xigzq2X4M-49">
          <mxGeometry relative="1" as="geometry">
            <mxPoint x="180" y="80" as="sourcePoint" />
            <mxPoint x="420" y="330" as="targetPoint" />
          </mxGeometry>
        </mxCell>
        <mxCell id="eFL0yc5VYw9Xigzq2X4M-49" value="&lt;font style=&quot;font-size: 20px;&quot;&gt;cid&lt;/font&gt;" style="ellipse;whiteSpace=wrap;html=1;align=center;fontStyle=4;" vertex="1" parent="1">
          <mxGeometry x="120" y="10" width="100" height="40" as="geometry" />
        </mxCell>
        <mxCell id="eFL0yc5VYw9Xigzq2X4M-50" value="cname" style="ellipse;whiteSpace=wrap;html=1;align=center;fontSize=20;" vertex="1" parent="1">
          <mxGeometry x="230" y="10" width="100" height="40" as="geometry" />
        </mxCell>
        <mxCell id="eFL0yc5VYw9Xigzq2X4M-51" value="" style="endArrow=none;html=1;rounded=0;exitX=0.627;exitY=0.117;exitDx=0;exitDy=0;entryX=0.5;entryY=1;entryDx=0;entryDy=0;exitPerimeter=0;" edge="1" parent="1" source="eFL0yc5VYw9Xigzq2X4M-60" target="eFL0yc5VYw9Xigzq2X4M-50">
          <mxGeometry relative="1" as="geometry">
            <mxPoint x="255" y="80" as="sourcePoint" />
            <mxPoint x="420" y="320" as="targetPoint" />
          </mxGeometry>
        </mxCell>
        <mxCell id="eFL0yc5VYw9Xigzq2X4M-52" value="Accounts" style="whiteSpace=wrap;html=1;align=center;" vertex="1" parent="1">
          <mxGeometry x="375" y="80" width="100" height="40" as="geometry" />
        </mxCell>
        <mxCell id="eFL0yc5VYw9Xigzq2X4M-53" value="aid" style="ellipse;whiteSpace=wrap;html=1;align=center;fontStyle=4;" vertex="1" parent="1">
          <mxGeometry x="350" y="10" width="100" height="40" as="geometry" />
        </mxCell>
        <mxCell id="eFL0yc5VYw9Xigzq2X4M-54" value="overdraft_limit_amount" style="ellipse;whiteSpace=wrap;html=1;align=center;" vertex="1" parent="1">
          <mxGeometry x="470" width="140" height="60" as="geometry" />
        </mxCell>
        <mxCell id="eFL0yc5VYw9Xigzq2X4M-57" value="" style="endArrow=none;html=1;rounded=0;exitX=0.313;exitY=1;exitDx=0;exitDy=0;exitPerimeter=0;entryX=0.117;entryY=0.067;entryDx=0;entryDy=0;entryPerimeter=0;" edge="1" parent="1" source="eFL0yc5VYw9Xigzq2X4M-53" target="eFL0yc5VYw9Xigzq2X4M-52">
          <mxGeometry relative="1" as="geometry">
            <mxPoint x="320" y="320" as="sourcePoint" />
            <mxPoint x="480" y="320" as="targetPoint" />
          </mxGeometry>
        </mxCell>
        <mxCell id="eFL0yc5VYw9Xigzq2X4M-58" value="" style="endArrow=none;html=1;rounded=0;entryX=1;entryY=0;entryDx=0;entryDy=0;" edge="1" parent="1" source="eFL0yc5VYw9Xigzq2X4M-54" target="eFL0yc5VYw9Xigzq2X4M-52">
          <mxGeometry relative="1" as="geometry">
            <mxPoint x="320" y="320" as="sourcePoint" />
            <mxPoint x="480" y="320" as="targetPoint" />
          </mxGeometry>
        </mxCell>
        <mxCell id="eFL0yc5VYw9Xigzq2X4M-60" value="Customers" style="whiteSpace=wrap;html=1;align=center;" vertex="1" parent="1">
          <mxGeometry x="170" y="80" width="100" height="40" as="geometry" />
        </mxCell>
        <mxCell id="eFL0yc5VYw9Xigzq2X4M-63" value="&#xa;&lt;span style=&quot;color: rgb(45, 59, 69); font-family: &amp;quot;Lato Extended&amp;quot;, Lato, &amp;quot;Helvetica Neue&amp;quot;, Helvetica, Arial, sans-serif; font-size: 16px; font-style: normal; font-variant-ligatures: normal; font-variant-caps: normal; font-weight: 400; letter-spacing: normal; orphans: 2; text-align: left; text-indent: 0px; text-transform: none; widows: 2; word-spacing: 0px; -webkit-text-stroke-width: 0px; white-space: normal; background-color: rgb(255, 255, 255); text-decoration-thickness: initial; text-decoration-style: initial; text-decoration-color: initial; display: inline !important; float: none;&quot;&gt;company&lt;/span&gt;&#xa;&#xa;" style="whiteSpace=wrap;html=1;align=center;verticalAlign=middle;" vertex="1" parent="1">
          <mxGeometry x="120" y="300" width="100" height="40" as="geometry" />
        </mxCell>
        <mxCell id="eFL0yc5VYw9Xigzq2X4M-64" value="individual" style="whiteSpace=wrap;html=1;align=center;" vertex="1" parent="1">
          <mxGeometry x="240" y="300" width="100" height="40" as="geometry" />
        </mxCell>
        <mxCell id="eFL0yc5VYw9Xigzq2X4M-66" value="" style="endArrow=none;html=1;rounded=0;entryX=0.5;entryY=0;entryDx=0;entryDy=0;" edge="1" parent="1" target="eFL0yc5VYw9Xigzq2X4M-64">
          <mxGeometry relative="1" as="geometry">
            <mxPoint x="270" y="222" as="sourcePoint" />
            <mxPoint x="480" y="320" as="targetPoint" />
          </mxGeometry>
        </mxCell>
        <mxCell id="eFL0yc5VYw9Xigzq2X4M-67" value="" style="endArrow=none;html=1;rounded=0;exitX=-0.044;exitY=0.05;exitDx=0;exitDy=0;exitPerimeter=0;" edge="1" parent="1" source="eFL0yc5VYw9Xigzq2X4M-45" target="eFL0yc5VYw9Xigzq2X4M-63">
          <mxGeometry relative="1" as="geometry">
            <mxPoint x="320" y="320" as="sourcePoint" />
            <mxPoint x="480" y="320" as="targetPoint" />
          </mxGeometry>
        </mxCell>
      </root>
    </mxGraphModel>
  </diagram>
</mxfile>
